# xmcd
#
# Track frame offsets:
#	150
#	90077
#	114112
#	141792
#
# Disc length: 3288 seconds
#
# Revision: 7
# Processed by: cddbd v1.5.2PL0 Copyright (c) Steve Scherf et al.
# Submitted via: audiograbber 1.83.01
#
DISCID=210cd604
DTITLE=Miles Davis - On The Corner
DYEAR=1972
DGENRE=Jazz Oldies
TTITLE0=On The Corner - New York Girl - Thinkin' Of One Thing And Doin' Another
TTITLE0=Vote For Miles
TTITLE1=Black Satin
TTITLE2=One And One
TTITLE3=Helen Butte - Mr. Freedom X
EXTD=Miles Davis - Original Album Classics (2018) [Box-Set]\n\nMARO\n
EXTT0=
EXTT1=
EXTT2=
EXTT3=
PLAYORDER=
